<svg xmlns="http://www.w3.org/2000/svg" width="31.268" height="31.268" viewBox="0 0 31.268 31.268">
    <defs>
        <style>
            .cls-1{fill:#efefef}
        </style>
    </defs>
    <path id="instagram" d="M15.634 2.606A13.028 13.028 0 1 1 2.606 15.634 13.043 13.043 0 0 1 15.634 2.606zm0-2.606a15.634 15.634 0 1 0 15.634 15.634A15.635 15.635 0 0 0 15.634 0zm6.013 7.817H9.621a1.8 1.8 0 0 0-1.8 1.8v12.028a1.8 1.8 0 0 0 1.8 1.806h12.026a1.8 1.8 0 0 0 1.8-1.8V9.621a1.8 1.8 0 0 0-1.8-1.8zm-6.013 4.811a3.006 3.006 0 1 1-3.006 3.006 3.007 3.007 0 0 1 3.006-3.006zM21.5 20.9a.6.6 0 0 1-.6.6H10.372a.6.6 0 0 1-.6-.6v-6.569h1.236a4.83 4.83 0 0 0-.133.633 4.924 4.924 0 0 0-.05.67 4.809 4.809 0 1 0 9.618 0 4.738 4.738 0 0 0-.051-.67 4.83 4.83 0 0 0-.133-.633H21.5zm0-9.108a.6.6 0 0 1-.6.6h-1.421a.6.6 0 0 1-.6-.6v-1.42a.6.6 0 0 1 .6-.6H20.9a.6.6 0 0 1 .6.6z" class="cls-1"/>
</svg>
