<svg xmlns="http://www.w3.org/2000/svg" width="31.268" height="31.268" viewBox="0 0 31.268 31.268">
    <defs>
        <style>
            .cls-1{fill:#efefef}
        </style>
    </defs>
    <path id="linkedin" d="M15.634 2.606A13.028 13.028 0 1 1 2.606 15.634 13.043 13.043 0 0 1 15.634 2.606zm0-2.606a15.634 15.634 0 1 0 15.634 15.634A15.635 15.635 0 0 0 15.634 0zm-2.606 10.423a1.3 1.3 0 1 1-1.3-1.313 1.307 1.307 0 0 1 1.3 1.313zm0 2.606h-2.605v7.817h2.606zm3.909 0h-2.606v7.817h2.606v-3.728c0-2.243 2.608-2.451 2.608 0v3.727h2.6v-4.376c0-4.279-4.075-4.122-5.211-2.017v-1.424z" class="cls-1"/>
</svg>
