<svg id="Layer_1" data-name="Layer 1" xmlns="http://www.w3.org/2000/svg" viewBox="0 0 302.59 146.99">
    <defs>
        <style>.cls-1{fill:#f9f9f9;}</style>
    </defs>
    <title>MASTER</title>
    <path class="cls-1"
          d="M70.59,88.59a7.08,7.08,0,0,1-5.47-2.1H64.7l-.42,1.26-.42.42H59.24l-.42-.42V59.18l.42-.42h5l.42.42v9.66h.42a7.08,7.08,0,0,1,5.47-2.1c5,0,9.24,4.2,9.24,10.93S75.63,88.59,70.59,88.59ZM69.33,71.78c-3.37,0-4.63,2.53-4.63,5.89s1.26,5.88,4.63,5.88S74,81,74,77.67,72.69,71.78,69.33,71.78Zm26.05.43H92.43c-3.36,0-4.62,1.68-4.62,5.46V87.75l-.42.42h-5l-.42-.42V67.58l.42-.42H87l.42.42.42,1.26h.42s.84-1.68,4.62-1.68h2.53l.42.42v4.2Zm8-8.41h-5L98,63.38v-4.2l.42-.42h5l.42.42v4.2Zm0,24.37h-5L98,87.75V67.58l.42-.42h5l.42.42V87.75Zm23.53-2.1c0,7.56-4.62,10.92-10.5,10.92-5,0-8.4-2.52-8.82-6.3l.42-.42h5l.42.42c.42.84,1.26,1.26,2.94,1.26,2.94,0,4.62-1.68,4.62-5.46h-.42a7.07,7.07,0,0,1-5.46,2.1c-5,0-9.25-4.2-9.25-10.92s4.21-10.93,9.25-10.93a7.07,7.07,0,0,1,5.46,2.1h.42l.42-1.26.42-.42h4.62l.42.42Zm-10.5-2.52c3.36,0,4.62-2.52,4.62-5.88s-1.26-5.89-4.62-5.89-4.62,2.53-4.62,5.89S113.08,83.55,116.44,83.55Zm32.35,4.62h-5l-.42-.42V75.57c0-2.1-.84-3.79-3.36-3.79-2.94,0-4.62,1.69-4.62,5.47v10.5l-.42.42h-5.05l-.42-.42V59.18l.42-.42h5.05l.42.42v9.66h.42a7.4,7.4,0,0,1,5.46-2.1c5,0,8,3.36,8,8.41v12.6Zm11.34-6.3a1.12,1.12,0,0,0,1.27,1.26h3.78l.42.42v4.2l-.42.42H161.4c-3.79,0-7.15-1.68-7.15-6.3V72.63l-.42-.42h-2.94l-.42-.43v-4.2l.42-.42h2.94l.42-.42V63l.42-.42h5l.42.42v3.78l.43.42h4.62l.42.42v4.2l-.42.43h-4.62l-.43.42Zm13.45,6.3h-5l-.42-.42V59.18l.42-.42h5l.42.42V87.75ZM182,63.8h-5l-.42-.42v-4.2l.42-.42h5l.42.42v4.2Zm0,24.37h-5l-.42-.42V67.58l.42-.42h5l.42.42V87.75Zm23.53-2.1c0,7.56-4.62,10.92-10.5,10.92-5,0-8.41-2.52-8.83-6.3l.42-.42h5.05l.42.42c.42.84,1.26,1.26,2.94,1.26,2.94,0,4.62-1.68,4.62-5.46h-.42a7.07,7.07,0,0,1-5.46,2.1c-5,0-9.25-4.2-9.25-10.92s4.21-10.93,9.25-10.93a7.07,7.07,0,0,1,5.46,2.1h.42l.42-1.26.42-.42h4.62l.42.42ZM195,83.55c3.36,0,4.62-2.52,4.62-5.88s-1.26-5.89-4.62-5.89-4.62,2.53-4.62,5.89S191.65,83.55,195,83.55Zm32,4.62h-5l-.42-.42V75.57c0-2.1-.84-3.79-3.36-3.79-2.94,0-4.62,1.69-4.62,5.47v10.5l-.42.42h-5l-.42-.42V59.18l.42-.42h5l.42.42v9.66h.42a7.4,7.4,0,0,1,5.46-2.1c5,0,8,3.36,8,8.41v12.6Zm11.35-6.3a1.11,1.11,0,0,0,1.26,1.26h3.78l.42.42v4.2l-.42.42h-3.78c-3.78,0-7.14-1.68-7.14-6.3V72.63l-.42-.42h-2.95l-.42-.43v-4.2l.42-.42H232l.42-.42V63l.42-.42h5l.42.42v3.78l.42.42h4.62l.42.42v4.2l-.42.43h-4.62l-.42.42Z"/>
</svg>