<?xml version="1.0" encoding="utf-8"?>
<!-- Generator: Adobe Illustrator 22.1.0, SVG Export Plug-In . SVG Version: 6.00 Build 0)  -->
<svg version="1.0" id="Layer_1" xmlns="http://www.w3.org/2000/svg" xmlns:xlink="http://www.w3.org/1999/xlink" x="0px" y="0px"
	 viewBox="0 0 184.9 38.2" style="enable-background:new 0 0 184.9 38.2;" xml:space="preserve">
<style type="text/css">
	.st0{fill:#383E42;}
	.st1{fill:#FFFFFF;stroke:#FFFFFF;stroke-miterlimit:10;}
	.st2{fill:#FF03F9;}
	.st3{fill:#FFFFFF;}
	.st4{fill:#F9F9F9;}
	.st5{fill:#323E48;}
	.st6{opacity:0.2;fill:#FF03F9;}
	.st7{fill:#4C4C4C;}
	.st8{fill:#313E48;}
	.st9{fill:#333F49;}
	.st10{fill:#333E48;}
	.st11{fill:#3D4D55;}
	.st12{fill:none;}
	.st13{fill:#C1C1C1;}
</style>
<path class="st4" d="M11.8,29.8c-3.8,0-5.5-2.1-5.5-2.1H5.9L5.5,29L5,29.4H0.4L0,29V0.4L0.4,0h5l0.4,0.4v9.7h0.4
	c0,0,1.7-2.1,5.5-2.1c5,0,9.2,4.2,9.2,10.9S16.8,29.8,11.8,29.8z M10.5,13c-3.4,0-4.6,2.5-4.6,5.9s1.3,5.9,4.6,5.9s4.6-2.5,4.6-5.9
	S13.9,13,10.5,13z M36.6,13.4h-2.9c-3.4,0-4.6,1.7-4.6,5.5V29l-0.4,0.4h-5L23.1,29V8.8l0.4-0.4h4.6l0.4,0.4l0.4,1.3h0.4
	c0,0,0.8-1.7,4.6-1.7h2.5L37,8.8V13L36.6,13.4z M44.6,5h-5l-0.4-0.4V0.4L39.6,0h5L45,0.4v4.2L44.6,5z M44.6,29.4h-5L39.1,29V8.8
	l0.4-0.4h5L45,8.8V29L44.6,29.4z M68.1,27.3c0,7.6-4.6,10.9-10.5,10.9c-5,0-8.4-2.5-8.8-6.3l0.4-0.4h5l0.4,0.4
	c0.4,0.8,1.3,1.3,2.9,1.3c2.9,0,4.6-1.7,4.6-5.5h-0.4c0,0-1.7,2.1-5.5,2.1c-5,0-9.2-4.2-9.2-10.9S51.3,8,56.4,8
	c3.8,0,5.5,2.1,5.5,2.1h0.4l0.4-1.3l0.4-0.4h4.6l0.4,0.4V27.3z M57.6,24.8c3.4,0,4.6-2.5,4.6-5.9S61,13,57.6,13S53,15.5,53,18.9
	S54.3,24.8,57.6,24.8z M90,29.4h-5L84.5,29V16.8c0-2.1-0.8-3.8-3.4-3.8c-2.9,0-4.6,1.7-4.6,5.5V29l-0.4,0.4h-5L70.6,29V0.4L71.1,0h5
	l0.4,0.4v9.7h0.4C77.8,9.2,79.5,8,82.4,8c5,0,8,3.4,8,8.4V29L90,29.4z M101.3,23.1c0,0.8,0.4,1.3,1.3,1.3h3.8l0.4,0.4V29l-0.4,0.4
	h-3.8c-3.8,0-7.1-1.7-7.1-6.3v-9.2L95,13.4h-2.9L91.6,13V8.8l0.4-0.4H95L95.4,8V4.2l0.4-0.4h5l0.4,0.4V8l0.4,0.4h4.6l0.4,0.4V13
	l-0.4,0.4h-4.6l-0.4,0.4V23.1z M114.8,29.4h-5l-0.4-0.4V0.4l0.4-0.4h5l0.4,0.4V29L114.8,29.4z M123.2,5h-5l-0.4-0.4V0.4l0.4-0.4h5
	l0.4,0.4v4.2L123.2,5z M123.2,29.4h-5l-0.4-0.4V8.8l0.4-0.4h5l0.4,0.4V29L123.2,29.4z M146.7,27.3c0,7.6-4.6,10.9-10.5,10.9
	c-5,0-8.4-2.5-8.8-6.3l0.4-0.4h5l0.4,0.4c0.4,0.8,1.3,1.3,2.9,1.3c2.9,0,4.6-1.7,4.6-5.5h-0.4c0,0-1.7,2.1-5.5,2.1
	c-5,0-9.2-4.2-9.2-10.9S129.9,8,134.9,8c3.8,0,5.5,2.1,5.5,2.1h0.4l0.4-1.3l0.4-0.4h4.6l0.4,0.4V27.3z M136.2,24.8
	c3.4,0,4.6-2.5,4.6-5.9s-1.3-5.9-4.6-5.9s-4.6,2.5-4.6,5.9S132.8,24.8,136.2,24.8z M168.1,29.4h-5l-0.4-0.4V16.8
	c0-2.1-0.8-3.8-3.4-3.8c-2.9,0-4.6,1.7-4.6,5.5V29l-0.4,0.4h-5l-0.4-0.4V0.4l0.4-0.4h5l0.4,0.4v9.7h0.4c0.8-0.8,2.5-2.1,5.5-2.1
	c5,0,8,3.4,8,8.4V29L168.1,29.4z M179.5,23.1c0,0.8,0.4,1.3,1.3,1.3h3.8l0.4,0.4V29l-0.4,0.4h-3.8c-3.8,0-7.1-1.7-7.1-6.3v-9.2
	l-0.4-0.4h-2.9l-0.4-0.4V8.8l0.4-0.4h2.9l0.4-0.4V4.2l0.4-0.4h5l0.4,0.4V8l0.4,0.4h4.6l0.4,0.4V13l-0.4,0.4h-4.6l-0.4,0.4V23.1z"/>
</svg>
