<svg xmlns="http://www.w3.org/2000/svg" width="31.268" height="31.268" viewBox="0 0 31.268 31.268">
    <defs>
        <style>
            .cls-1{fill:#efefef}
        </style>
    </defs>
    <path id="vimeo" d="M15.634 2.606A13.028 13.028 0 1 1 2.606 15.634 13.043 13.043 0 0 1 15.634 2.606zm0-2.606a15.634 15.634 0 1 0 15.634 15.634A15.635 15.635 0 0 0 15.634 0zm7.082 15.426c-1.589 3.4-5.429 8.025-7.856 8.025-2.393 0-2.74-5.1-4.047-8.5-.641-1.67-1.055-1.287-2.259-.443l-.737-.948c1.759-1.545 3.515-3.339 4.6-3.439q1.823-.176 2.246 2.5c.37 2.341.887 5.974 1.79 5.974.7 0 2.438-2.882 2.525-3.912.158-1.51-1.11-1.554-2.208-1.084 1.741-5.7 8.986-4.652 5.949 1.829z" class="cls-1"/>
</svg>
